<svg width="87" height="27" viewBox="0 0 87 27" fill="none" xmlns="http://www.w3.org/2000/svg">
<path d="M13.5 0L16.5309 9.32827H26.3393L18.4042 15.0935L21.4351 24.4217L13.5 18.6565L5.5649 24.4217L8.59584 15.0935L0.660737 9.32827H10.4691L13.5 0Z" fill="#D9D9D9"/>
<path d="M73.5 0L76.5309 9.32827H86.3393L78.4042 15.0935L81.4351 24.4217L73.5 18.6565L65.5649 24.4217L68.5958 15.0935L60.6607 9.32827H70.4691L73.5 0Z" fill="#D9D9D9"/>
<path d="M43.5 0L46.5309 9.32827H56.3393L48.4042 15.0935L51.4351 24.4217L43.5 18.6565L35.5649 24.4217L38.5958 15.0935L30.6607 9.32827H40.4691L43.5 0Z" fill="#D9D9D9"/>
</svg>
